<svg width="34" height="34" viewBox="0 0 34 34" fill="none" xmlns="http://www.w3.org/2000/svg">
<path fill-rule="evenodd" clip-rule="evenodd" d="M2.83334 17C2.83334 10.3218 2.83334 6.98269 4.90801 4.90804C6.98266 2.83337 10.3218 2.83337 17 2.83337C23.6782 2.83337 27.0174 2.83337 29.092 4.90804C31.1667 6.98269 31.1667 10.3218 31.1667 17C31.1667 23.6782 31.1667 27.0174 29.092 29.092C27.0174 31.1667 23.6782 31.1667 17 31.1667C10.3218 31.1667 6.98266 31.1667 4.90801 29.092C2.83334 27.0174 2.83334 23.6782 2.83334 17ZM17 8.85421C17.5868 8.85421 18.0625 9.32991 18.0625 9.91671V17.2682L20.4987 14.8321C20.9137 14.4172 21.5863 14.4172 22.0013 14.8321C22.4162 15.2471 22.4162 15.9197 22.0013 16.3346L17.7513 20.5846C17.5521 20.784 17.2818 20.8959 17 20.8959C16.7182 20.8959 16.4479 20.784 16.2487 20.5846L11.9987 16.3346C11.5838 15.9197 11.5838 15.2471 11.9987 14.8321C12.4136 14.4172 13.0864 14.4172 13.5013 14.8321L15.9375 17.2682V9.91671C15.9375 9.32991 16.4132 8.85421 17 8.85421ZM11.3333 23.0209C10.7465 23.0209 10.2708 23.4966 10.2708 24.0834C10.2708 24.6702 10.7465 25.1459 11.3333 25.1459H22.6667C23.2535 25.1459 23.7292 24.6702 23.7292 24.0834C23.7292 23.4966 23.2535 23.0209 22.6667 23.0209H11.3333Z" fill="white"/>
</svg>
