<svg width="15" height="18" viewBox="0 0 15 18" fill="none" xmlns="http://www.w3.org/2000/svg">
<path d="M3.43016 5.7998H0.307495V17.5099H3.43016V5.7998Z" fill="white"/>
<path d="M11.8772 5.5456C11.7621 5.52868 11.6398 5.52022 11.5175 5.51176C9.76906 5.42715 8.78334 6.64554 8.43798 7.17012C8.34444 7.31396 8.30127 7.39857 8.30127 7.39857V5.83328H5.31531V17.5434H8.30127H8.43798C8.43798 16.3504 8.43798 15.1658 8.43798 13.9728C8.43798 13.3298 8.43798 12.6867 8.43798 12.0437C8.43798 11.2483 8.38761 10.4022 8.72578 9.67459C9.01358 9.0654 9.53162 8.7608 10.1144 8.7608C11.8412 8.7608 11.8772 10.5968 11.8772 10.7661C11.8772 10.7745 11.8772 10.783 11.8772 10.783V17.5941H14.9999V9.95381C14.9999 7.33935 13.8703 5.79944 11.8772 5.5456Z" fill="white"/>
<path d="M1.86882 4.28487C2.8702 4.28487 3.68199 3.33026 3.68199 2.15269C3.68199 0.975119 2.8702 0.0205078 1.86882 0.0205078C0.86744 0.0205078 0.0556641 0.975119 0.0556641 2.15269C0.0556641 3.33026 0.86744 4.28487 1.86882 4.28487Z" fill="white"/>
</svg>
