<svg width="15" height="15" viewBox="0 0 15 15" fill="none" xmlns="http://www.w3.org/2000/svg">
<path d="M0 12.2646C1.61463 12.3625 3.02656 11.9556 4.40354 10.8781C3.01258 10.6219 2.048 9.93622 1.52377 8.51961C1.92917 8.45933 2.28565 8.57236 2.70504 8.39151C1.33505 7.74349 0.447346 6.77145 0.412397 5.09111C0.845761 5.12879 1.17428 5.43773 1.69152 5.39252C0.43337 4.06633 0.0489282 2.61958 0.83877 0.863887C2.15284 2.49148 3.69059 3.59915 5.57084 4.11908C5.67568 4.14922 5.77353 4.17936 5.87838 4.20196C6.36067 4.32253 6.93383 4.57872 7.2274 4.54105C7.73066 4.47323 7.22741 3.84781 7.35322 3.03401C7.75164 0.502199 10.3378 -0.65068 12.253 0.833746C12.8122 1.27079 13.2526 1.26325 13.8048 0.99952C14.0913 0.863887 14.3849 0.728254 14.7274 0.570016C14.6505 1.29339 14.1333 1.69275 13.7209 2.22775C14.1892 2.34078 14.5666 2.19761 15 2.04691C14.8532 2.56683 14.4897 2.8607 14.1612 3.14704C13.8187 3.44091 13.6859 3.74985 13.6719 4.2321C13.4623 11.5337 5.76655 17.1775 0.503267 12.6866C-0.00698459 12.2495 0.489282 12.6866 0 12.2646Z" fill="white"/>
</svg>
