<svg width="34" height="34" viewBox="0 0 34 34" fill="none" xmlns="http://www.w3.org/2000/svg"><path fill-rule="evenodd" clip-rule="evenodd" d="M2.833 17c0-6.678 0-10.017 2.075-12.092C6.983 2.833 10.322 2.833 17 2.833c6.678 0 10.017 0 12.092 2.075 2.075 2.075 2.075 5.414 2.075 12.092 0 6.678 0 10.017-2.075 12.092-2.075 2.075-5.414 2.075-12.092 2.075-6.678 0-10.017 0-12.092-2.075C2.833 27.017 2.833 23.678 2.833 17zM17 8.854c.587 0 1.063.476 1.063 1.063v7.351l2.436-2.436A1.063 1.063 0 0122 16.335l-4.25 4.25a1.062 1.062 0 01-1.502 0l-4.25-4.25a1.062 1.062 0 111.502-1.503l2.437 2.436V9.917c0-.587.475-1.063 1.062-1.063zm-5.667 14.167a1.063 1.063 0 000 2.125h11.334a1.063 1.063 0 000-2.125H11.333z" fill="#fff"/></svg>