<svg width="15" height="18" viewBox="0 0 15 18" fill="none" xmlns="http://www.w3.org/2000/svg"><path d="M3.43 5.8H.307v11.71H3.43V5.8zm8.447-.254a4.488 4.488 0 00-.36-.034C9.77 5.427 8.784 6.646 8.438 7.17a2.83 2.83 0 00-.137.229V5.833H5.315v11.71h3.123v-5.5c0-.795-.05-1.64.288-2.368.288-.61.806-.914 1.388-.914 1.727 0 1.763 1.836 1.763 2.005v6.828H15v-7.64c0-2.615-1.13-4.155-3.123-4.408zM1.869 4.285c1.001 0 1.813-.955 1.813-2.132C3.682.975 2.87.02 1.869.02.867.02.056.975.056 2.153c0 1.177.811 2.132 1.813 2.132z" fill="#fff"/></svg>