<svg width="15" height="15" viewBox="0 0 15 15" fill="none" xmlns="http://www.w3.org/2000/svg"><path d="M0 12.265c1.615.098 3.027-.31 4.404-1.387-1.391-.256-2.356-.942-2.88-2.358.405-.06.762.052 1.181-.128-1.37-.649-2.258-1.62-2.293-3.3.434.037.762.346 1.28.3C.433 4.067.049 2.62.839.865 2.153 2.49 3.69 3.599 5.57 4.119c.105.03.203.06.307.083.483.12 1.056.377 1.35.34.503-.069 0-.694.125-1.508.399-2.532 2.985-3.685 4.9-2.2.56.437 1 .43 1.552.166.286-.136.58-.272.922-.43-.077.723-.594 1.123-1.006 1.658.468.113.846-.03 1.279-.181-.147.52-.51.814-.839 1.1-.342.294-.475.603-.49 1.085-.209 7.302-7.904 12.945-13.168 8.455-.51-.438-.014 0-.503-.422z" fill="#fff"/></svg>